<svg width="24" height="24" viewBox="0 0 24 24" fill="none" xmlns="http://www.w3.org/2000/svg">
    <g clip-path="url(#clip0_3_102)">
        <path
            d="M17.1161 15.8748C17.8978 14.7453 18.263 13.303 18.2455 11.9132C18.1931 8.78521 16.2819 5.69215 12.007 5.69215C7.73207 5.69215 5.7341 8.872 5.75158 12.0518C5.76847 15.2148 7.68022 18.3597 12.007 18.3597C13.3799 18.3597 14.5444 18.0469 15.4653 17.4562L16.9425 18.916L18.5583 17.3001L17.1161 15.8748ZM12.007 16.24C9.36597 16.24 8.04545 14.1028 8.0105 12.1043C7.97555 10.0539 9.13996 7.76002 12.007 7.76002C14.8741 7.76002 15.8998 9.87972 15.9866 11.8433C16.0734 13.9286 14.7529 16.24 12.007 16.24Z"
            fill="#566CFD" />
        <path
            d="M12 0C5.38343 0 0 5.38285 0 12C0 14.6702 0.900539 17.285 2.53968 19.3837C2.4593 19.5159 2.41328 19.6709 2.41328 19.8363C2.41328 20.318 2.8053 20.7101 3.28702 20.7101C3.76875 20.7101 4.16135 20.318 4.16135 19.8363C4.16135 19.3546 3.76933 18.9626 3.28702 18.9626C3.24858 18.9626 3.21072 18.9649 3.17344 18.9701C1.61177 16.9955 0.753167 14.5245 0.753167 12C0.753167 5.79816 5.79816 0.753167 12 0.753167C18.2018 0.753167 23.2468 5.79816 23.2468 12C23.2468 18.2018 18.2018 23.2468 12 23.2468C10.277 23.2468 8.57492 22.8507 7.04005 22.0964C6.97189 21.8465 6.74297 21.663 6.47153 21.663C6.14533 21.663 5.88146 21.9269 5.88146 22.2531C5.88146 22.5793 6.14533 22.8432 6.47153 22.8432C6.56415 22.8432 6.6521 22.8216 6.73074 22.7832C8.36231 23.5812 10.1698 24 12 24C18.6166 24 24 18.6166 24 12C24 5.38343 18.6166 0 12 0ZM3.28702 19.4146C3.52002 19.4146 3.70933 19.6039 3.70933 19.8363C3.70933 20.0687 3.52002 20.2586 3.28702 20.2586C3.05403 20.2586 2.8653 20.0693 2.8653 19.8363C2.8653 19.6033 3.05461 19.4146 3.28702 19.4146Z"
            fill="#566CFD" />
        <path
            d="M21.7288 10.1861C21.7102 10.1803 21.691 10.1756 21.6712 10.1721C20.8056 5.57566 16.7199 2.15874 12 2.15874C9.30127 2.15874 6.708 3.27771 4.8545 5.23373C4.73218 5.16849 4.59238 5.13121 4.44442 5.13121C3.9627 5.13121 3.57068 5.52323 3.57068 6.00496C3.57068 6.48668 3.9627 6.8787 4.44442 6.8787C4.92615 6.8787 5.31817 6.48668 5.31817 6.00496C5.31817 5.83487 5.26924 5.67585 5.18478 5.54187C6.95382 3.67672 9.42651 2.61075 12 2.61075C16.505 2.61075 20.4042 5.87331 21.2279 10.2601C21.0706 10.3661 20.9663 10.5461 20.9663 10.75C20.9663 11.0762 21.2308 11.34 21.5564 11.34C21.882 11.34 22.1465 11.0762 22.1465 10.75C22.1465 10.4844 21.9711 10.2601 21.7288 10.1861ZM4.44442 6.42669C4.21142 6.42669 4.02211 6.23737 4.02211 6.00496C4.02211 5.77254 4.21142 5.58265 4.44442 5.58265C4.67742 5.58265 4.86615 5.77196 4.86615 6.00496C4.86615 6.23796 4.67684 6.42669 4.44442 6.42669Z"
            fill="#566CFD" />
        <path
            d="M21.225 13.5751C20.7433 13.5751 20.3513 13.9671 20.3513 14.4488C20.3513 14.7849 20.5423 15.0773 20.8213 15.2235C19.4717 18.9253 15.968 21.3893 12 21.3893C6.82279 21.3893 2.61076 17.1772 2.61076 12C2.61076 11.3744 2.6725 10.7523 2.79483 10.1442C3.07443 10.0976 3.28762 9.85466 3.28762 9.56225C3.28762 9.23605 3.02317 8.97218 2.69755 8.97218C2.37194 8.97218 2.10748 9.23605 2.10748 9.56225C2.10748 9.75972 2.20476 9.93505 2.35446 10.0416C2.22456 10.6836 2.15874 11.34 2.15874 12C2.15874 17.4265 6.57348 21.8407 12 21.8407C16.1794 21.8407 19.8672 19.2334 21.2664 15.3214C21.7289 15.2998 22.0987 14.9166 22.0987 14.4488C22.0987 13.9811 21.7067 13.5751 21.225 13.5751ZM21.225 14.8705C20.9926 14.8705 20.8033 14.6818 20.8033 14.4488C20.8033 14.2158 20.9926 14.0271 21.225 14.0271C21.4574 14.0271 21.6467 14.2164 21.6467 14.4488C21.6467 14.6812 21.4574 14.8705 21.225 14.8705Z"
            fill="#566CFD" />
    </g>
    <defs>
        <clipPath id="clip0_3_102">
            <rect width="24" height="24" fill="white" />
        </clipPath>
    </defs>
</svg>